<mxfile host="app.diagrams.net" modified="2022-11-08T02:29:39.519Z" agent="5.0 (Macintosh; Intel Mac OS X 10_15_7) AppleWebKit/537.36 (KHTML, like Gecko) Chrome/106.0.0.0 Safari/537.36" etag="IGDiN9Q6FQ-87oI5u8m4" version="20.5.2" type="github">
  <diagram id="5w5bmlzey-V4lg3tfTK3" name="第 1 页">
    <mxGraphModel dx="851" dy="460" grid="1" gridSize="10" guides="1" tooltips="1" connect="1" arrows="1" fold="1" page="1" pageScale="1" pageWidth="827" pageHeight="1169" math="0" shadow="0">
      <root>
        <mxCell id="0" />
        <mxCell id="1" parent="0" />
        <mxCell id="9ZDvSCbJK7eQgpWY-0sZ-1" value="" style="rounded=0;whiteSpace=wrap;html=1;" vertex="1" parent="1">
          <mxGeometry x="280" y="80" width="450" height="320" as="geometry" />
        </mxCell>
        <mxCell id="9ZDvSCbJK7eQgpWY-0sZ-2" value="domain_id: i" style="text;strokeColor=none;fillColor=none;align=left;verticalAlign=middle;spacingLeft=4;spacingRight=4;overflow=hidden;points=[[0,0.5],[1,0.5]];portConstraint=eastwest;rotatable=0;whiteSpace=wrap;html=1;" vertex="1" parent="1">
          <mxGeometry x="290" y="90" width="110" height="30" as="geometry" />
        </mxCell>
      </root>
    </mxGraphModel>
  </diagram>
</mxfile>
